<svg width="86" height="86" viewBox="0 0 86 86" fill="none" xmlns="http://www.w3.org/2000/svg">
<path d="M35.4972 5.27604C38.0745 -1.68891 47.9256 -1.6889 50.5028 5.27604L57.3887 23.8848C58.199 26.0746 59.9254 27.801 62.1152 28.6113L80.724 35.4972C87.6889 38.0745 87.6889 47.9256 80.724 50.5028L62.1152 57.3887C59.9254 58.199 58.199 59.9254 57.3887 62.1152L50.5028 80.724C47.9255 87.6889 38.0745 87.6889 35.4972 80.724L28.6113 62.1152C27.801 59.9254 26.0746 58.199 23.8848 57.3887L5.27604 50.5028C-1.68891 47.9255 -1.6889 38.0744 5.27604 35.4972L23.8848 28.6113C26.0746 27.801 27.801 26.0746 28.6113 23.8848L35.4972 5.27604Z" fill="url(#paint0_linear_5_27)"/>
<defs>
<linearGradient id="paint0_linear_5_27" x1="8" y1="14.5" x2="87" y2="82.5" gradientUnits="userSpaceOnUse">
<stop stop-color="#FFD84E"/>
<stop offset="1" stop-opacity="0"/>
</linearGradient>
</defs>
</svg>
