<svg width="130" height="136" viewBox="0 0 130 136" fill="none" xmlns="http://www.w3.org/2000/svg">
<path d="M55.0567 8.63862C57.1006 -2.38732 72.8994 -2.38731 74.9433 8.63863C76.4054 16.5258 86.0286 19.6526 91.8474 14.1311C99.9819 6.41235 112.763 15.6986 107.936 25.8202C104.483 33.0604 110.43 41.2464 118.383 40.1997C129.501 38.7364 134.383 53.7619 124.529 59.113C117.479 62.9408 117.479 73.0592 124.529 76.887C134.383 82.2381 129.501 97.2636 118.383 95.8003C110.43 94.7536 104.483 102.94 107.936 110.18C112.763 120.301 99.9819 129.588 91.8474 121.869C86.0286 116.347 76.4054 119.474 74.9433 127.361C72.8994 138.387 57.1006 138.387 55.0567 127.361C53.5946 119.474 43.9714 116.347 38.1525 121.869C30.0181 129.588 17.2367 120.301 22.064 110.18C25.5171 102.94 19.5696 94.7536 11.6166 95.8003C0.498718 97.2636 -4.38335 82.2381 5.47133 76.887C12.5207 73.0592 12.5207 62.9408 5.47133 59.113C-4.38335 53.7619 0.498726 38.7364 11.6166 40.1997C19.5696 41.2464 25.5171 33.0604 22.064 25.8202C17.2367 15.6986 30.0181 6.41234 38.1525 14.1311C43.9714 19.6526 53.5946 16.5258 55.0567 8.63862Z" fill="url(#paint0_linear_5_34)"/>
<defs>
<linearGradient id="paint0_linear_5_34" x1="-3.18966" y1="12.4741" x2="150.724" y2="144.957" gradientUnits="userSpaceOnUse">
<stop stop-color="#FF86C8"/>
<stop offset="1" stop-opacity="0.44"/>
</linearGradient>
</defs>
</svg>
