<svg width="1288" height="1428" viewBox="0 0 1288 1428" fill="none" xmlns="http://www.w3.org/2000/svg">
<path opacity="0.9" d="M462.637 137.499C514.709 -44.9617 773.291 -44.9617 825.363 137.499C853.296 235.376 953.853 293.432 1052.58 268.684C1236.63 222.55 1365.93 446.489 1233.95 582.814C1163.15 655.943 1163.15 772.057 1233.95 845.186C1365.93 981.511 1236.63 1205.45 1052.58 1159.32C953.853 1134.57 853.296 1192.62 825.363 1290.5C773.291 1472.96 514.709 1472.96 462.637 1290.5C434.704 1192.62 334.147 1134.57 235.417 1159.32C51.3654 1205.45 -77.9257 981.511 54.0539 845.186C124.852 772.057 124.852 655.943 54.0539 582.814C-77.9257 446.489 51.3654 222.55 235.417 268.685C334.147 293.432 434.704 235.376 462.637 137.499Z" fill="#1A1A1A"/>
</svg>