<svg width="350" height="350" viewBox="0 0 350 350" fill="none" xmlns="http://www.w3.org/2000/svg">
<path d="M350 175C350 128.587 331.563 84.0752 298.744 51.2563C265.925 18.4375 221.413 3.50408e-06 175 0C128.587 -3.50407e-06 84.0752 18.4374 51.2563 51.2563C18.4375 84.0752 7.00815e-06 128.587 0 175L175 175H350Z" fill="#FF86C8"/>
<path d="M0.044418 179H350L349.5 189H0.573946L0.044418 179Z" fill="#FF86C8"/>
<path d="M1.02734 194H348.965L348.355 199H1.64453L1.02734 194Z" fill="#FF86C8"/>
<path d="M2.95312 207H347.043L346.051 212H3.94141L2.95312 207Z" fill="#FF86C8"/>
<path d="M5.11428 217H344.887L343.57 222H6.41844L5.11428 217Z" fill="#FF86C8"/>
<path d="M10.2432 234H339.725L335.5 244.5L331 254L19.5001 255L14.5001 244.5L10.2432 234Z" fill="#FF86C8"/>
<path d="M30 273H320L314 281L308 288.5L302.5 295L296 301.5L281.5 314L266 324.5L249.5 333.5L232 340.5L214.5 345.5L196.5 348.5L186 350H175H165L155 349L143 347L134 345L124 342.5L113.5 339L105 335.5L96.5 331.5L80 322.5L72.5 317L65.5 311.5L58.5 305.5L52 299.5L40.5 287L30 273Z" fill="#FF86C8"/>
</svg>
